<svg width="334" height="100" fill="none" xmlns="http://www.w3.org/2000/svg"><path d="M22.497 0h50.399c12.46 0 22.497 9.985 22.497 22.348v50.085c0 12.383-10.037 22.348-22.497 22.348h-50.4C10.057 94.781 0 84.796 0 72.433V22.368C0 9.985 10.036 0 22.497 0Z" fill="#6BD1FF"/><path d="M70.129 27.243c-.4-.138-.94-.315-1.6-.492-.36-.099-.64-.178-1-.237-1-.197-1.799-.216-2.799-.236-.3 0-.7-.02-1.2 0V12.984h6.599v14.259Z" fill="#0B111C"/><path fill-rule="evenodd" clip-rule="evenodd" d="M45.917 49.636c-1.08 6.912-7.678 11.876-15.795 11.876-9.817 0-16.954-7.032-16.954-16.76 0-1.202.12-7.406 4.878-12.113 2.14-2.109 4.36-3.075 5.411-3.533l.027-.012c2.42-1.024 4.879-1.438 19.694-1.438h.84l.031.04c3.725-.04 6.913-.02 9.405 0 5.478.039 8.237.137 9.637.197 2.38.098 3.559.157 3.979.197 1.58.216 7.457 1.043 11.596 6.006 3.379 4.058 3.699 8.784 3.699 10.675 0 7.394-4.267 13.246-10.822 15.617V68.022c-.023 1.08-.128 4.538-2.376 7.908-1.672 2.525-3.883 3.94-5.094 4.594-3.86 2.111-7.54 2-8.263 1.976h-.029l-.027-.002a16.281 16.281 0 0 1-4.756-.988c-.67-.245-2.38-.948-4.183-2.407a14.99 14.99 0 0 1-3.516-4.098 13.588 13.588 0 0 1-1.413-3.36h-.488c-1.58 0-2.859-1.458-2.859-3.25v-.61c0-1.793 1.28-3.25 2.86-3.25H52.374c1.56 0 2.839 1.457 2.859 3.25v.61c0 1.792-1.28 3.25-2.86 3.25h-.385c.302.48.741.977 1.378 1.366.032.015.083.04.153.07.151.067.382.161.674.258.59.194 1.376.379 2.22.388.051-.002.75-.026 1.65-.29.941-.276 1.976-.776 2.765-1.656 1.197-1.348 1.312-2.975 1.35-3.865l.001-.036.003-.036v-.003a3.89 3.89 0 0 0-.003-.332l-.004-.156c-.008-.363-.021-.966-.039-2.017l-.012-.759c-.015-.892-.028-1.646-.028-2.189V61.36c-9.2-1.209-15.051-8.685-14.1-18.696H65.05v4.845l-9.836-.02c.26 4.352 4.338 7.7 9.377 7.7 5.978 0 10.276-4.391 10.276-10.418 0-3.663-1.52-6.696-4.019-8.528-1.819-1.34-3.698-1.635-6.018-1.89-3.738-.414-9.076-.769-15.774-.473l-.001-.002-.031-.038c-4.876-.019-11.56.08-18.722.473-1.32.079-3.299.217-5.258 1.497-2.72 1.772-4.379 4.963-4.379 8.922 0 6.105 4.02 10.418 9.637 10.418 4.019 0 7.638-2.718 8.617-6.42l6.998.906Z" fill="#0B111C"/><path d="M135.521 64.86c-.497 5.145-5.317 8.9-11.432 8.9-7.051 0-12.149-4.987-12.149-11.88 0-6.873 5.098-11.879 12.109-11.879 6.055 0 10.835 3.775 11.413 9.019l-6.214.655c-.498-2.284-2.57-3.972-4.98-3.972-3.326 0-5.596 2.502-5.596 6.157 0 3.656 2.29 6.158 5.557 6.158 2.39 0 4.481-1.648 4.999-3.913l6.293.755ZM138.29 72.984V50.796h6.752v8.124h7.429v-8.124h6.752v22.188h-6.752v-8.84h-7.429v8.84h-6.752Z" fill="#fff"/><path fill-rule="evenodd" clip-rule="evenodd" d="M177.726 72.984h7.05l-6.971-22.188h-9.819l-6.951 22.188h7.051l.956-3.337h7.728l.956 3.337Zm-2.251-8.065h-5.119l2.55-8.462 2.569 8.462Z" fill="#fff"/><path d="M186.629 72.984V50.796h6.752v16.487h8.146v5.701h-14.898ZM204.136 72.984V50.796h6.752v16.487h8.146v5.701h-14.898ZM237.816 67.72v5.264h-16.193V50.796h15.874v5.244h-9.381v3.377h8.146v4.53h-8.146v3.773h9.7ZM255.203 64.9V50.796h6.274v22.188h-7.031l-7.608-14.064v14.064h-6.274V50.796h7.031l7.608 14.104ZM276.514 64.085v-3.913h12.11c.817 7.866-4.203 13.567-11.871 13.567-7.23 0-12.488-4.986-12.488-11.879 0-6.873 5.258-11.879 12.488-11.879 5.438 0 9.78 3.1 10.815 7.43l-6.214 1.152c-.538-1.669-2.43-2.88-4.621-2.88-3.326 0-5.716 2.562-5.716 6.157 0 3.556 2.49 6.158 5.995 6.158 2.729 0 4.999-1.708 5.199-3.973h-5.697v.06ZM307.685 67.72v5.264h-16.193V50.796h15.874v5.244h-9.381v3.377h8.146v4.53h-8.146v3.773h9.7ZM309.636 65.674h5.836c.04 1.887 1.793 3.278 4.223 3.278 1.991 0 3.266-.934 3.266-2.165 0-3.914-13.205-.06-13.205-9.138 0-4.589 3.944-7.628 9.54-7.628 5.597 0 9.64 3.258 9.66 7.747h-5.617c0-1.708-1.653-2.94-3.844-2.94-1.892 0-3.206.834-3.206 2.006 0 3.715 13.205-.06 13.205 9.019 0 4.688-4.123 7.906-9.999 7.906-5.716 0-9.859-3.417-9.859-8.085Z" fill="#fff"/><path fill-rule="evenodd" clip-rule="evenodd" d="M164.609 35.243a.885.885 0 0 1-.358.533c-.179.133-.358.178-.536.222-.358.133-.76.222-1.073.4-.403.178-.76.267-1.073.4-.402.178-.805.267-1.162.4a7.166 7.166 0 0 0-.805.444c-.223.178-.402.4-.581.667-.179.266-.224.622-.224 1.066 0 .844.224 1.467.626 1.955.403.4 1.163.623 2.28.623 1.118 0 1.878-.223 2.28-.623.402-.444.626-1.066.626-1.866v-4.221Zm-2.951-9.02c2.012 0 3.442.399 4.426 1.154.939.8 1.386 1.778 1.386 2.933v9.998c0 .4-.045.845-.224 1.334-.179.533-.447.933-.849 1.333-.447.4-1.028.755-1.788 1.022-.76.266-1.744.4-2.951.4s-2.19-.134-2.95-.4c-.76-.267-1.341-.623-1.788-1.022-.447-.4-.76-.845-.849-1.334-.134-.533-.224-.933-.224-1.333v-1.644c0-.844.224-1.644.626-2.355.447-.666 1.073-1.2 1.877-1.466.403-.178.85-.267 1.386-.445.537-.177 1.028-.355 1.565-.533.536-.178.938-.355 1.251-.444.358-.133.582-.222.671-.222a1.31 1.31 0 0 1 .358-.178c.134-.045.268-.222.447-.356.134-.177.223-.355.357-.533.134-.222.134-.444.134-.755v-.622c0-.223-.044-.445-.134-.667-.045-.222-.223-.444-.447-.622-.223-.222-.536-.356-.939-.533-.357-.134-.849-.178-1.43-.178-1.162 0-1.878.222-2.28.667-.357.4-.581.933-.581 1.466 0 .133-.134.222-.223.222h-2.459c-.134 0-.224-.133-.224-.222v-.578c0-.577.135-1.066.358-1.6.224-.533.581-.933 1.028-1.333.447-.355 1.073-.666 1.833-.844.76-.133 1.609-.31 2.637-.31Zm-39.516 9.02a.885.885 0 0 1-.358.533c-.178.133-.357.178-.536.222-.358.133-.76.222-1.073.4-.402.178-.76.267-1.073.4-.402.178-.804.267-1.162.4-.268.133-.536.267-.804.444-.224.178-.403.4-.582.667-.178.266-.223.622-.223 1.066 0 .844.223 1.467.626 1.955.402.4 1.162.623 2.28.623 1.117 0 1.877-.223 2.369-.623.402-.444.626-1.066.626-1.866l-.09-4.221Zm-2.861-9.02c2.012 0 3.442.399 4.426 1.154.938.8 1.385 1.778 1.385 2.933v9.998c0 .4-.044.845-.223 1.334-.134.533-.447.933-.849 1.333-.447.4-1.029.755-1.788 1.022-.76.266-1.744.4-2.951.4s-2.19-.134-2.95-.4c-.76-.267-1.341-.623-1.788-1.022-.447-.4-.76-.845-.849-1.334a3.942 3.942 0 0 1-.224-1.333v-1.644c0-.844.224-1.644.626-2.355.447-.666 1.073-1.2 1.877-1.466.403-.178.85-.267 1.386-.445.536-.177 1.028-.355 1.565-.533.536-.178.938-.355 1.251-.444.358-.133.581-.222.671-.222.134 0 .223-.134.357-.178.179-.045.269-.222.447-.356.179-.177.224-.355.358-.533.134-.222.179-.444.179-.755v-.622a1.25 1.25 0 0 0-.179-.667c-.045-.222-.224-.444-.447-.622-.224-.222-.536-.356-.939-.533-.357-.134-.849-.178-1.43-.178-1.162 0-1.878.222-2.28.667-.358.4-.581.933-.581 1.466 0 .133-.134.222-.224.222h-2.458c-.134 0-.224-.133-.224-.222v-.578c0-.577.134-1.066.358-1.6.223-.533.581-.933 1.028-1.333.447-.355 1.073-.666 1.833-.844.67-.133 1.609-.31 2.637-.31Zm33.571 0h1.654c.179 0 .224.177.224.266l-.582 2.133c0 .133-.134.177-.223.177h-1.118c-.625 0-1.072.045-1.475.223-.357.177-.67.355-.849.577-.224.222-.358.445-.402.667-.045.222-.045.444-.045.666V44.22c0 .133-.134.222-.224.222h-2.458c-.134 0-.224-.133-.224-.222V30.354c0-.221.045-.621.179-1.066.045-.444.358-.933.76-1.377.402-.445.984-.845 1.743-1.2.582-.311 1.699-.489 3.04-.489Zm-8.314 13.508v.622c0 .266-.045.622-.179 1.066-.045.445-.358.934-.76 1.378-.402.444-.984.844-1.743 1.2-.805.355-1.833.533-3.219.533s-2.459-.178-3.219-.533c-.804-.356-1.385-.756-1.743-1.2a3.546 3.546 0 0 1-.76-1.378c-.044-.444-.179-.8-.179-1.066v-13.82c0-.133.135-.222.224-.222h2.458c.135 0 .224.133.224.222v13.02c0 .444.045.755.134.978.045.222.179.533.358.666.179.222.447.4.849.578.358.178.849.222 1.565.222.625 0 1.207-.044 1.609-.222.402-.178.67-.356.849-.533.224-.223.358-.445.403-.667.044-.222.178-.444.178-1.022V26.578c0-.134.134-.223.224-.223h2.458c.135 0 .224.134.224.223l.045 13.153ZM127.73 19.645h2.458c.135 0 .224.134.224.223v24.395c0 .134-.134.222-.224.222h-2.458c-.134 0-.224-.133-.224-.222V19.868c0-.09.09-.223.224-.223Z" fill="#fff"/></svg>